ffmpeg version 3.4.8-0ubuntu0.2 Copyright (c) 2000-2020 the FFmpeg developers
  built with gcc 7 (Ubuntu 7.5.0-3ubuntu1~18.04)
  configuration: --prefix=/usr --extra-version=0ubuntu0.2 --toolchain=hardened --libdir=/usr/lib/x86_64-linux-gnu --incdir=/usr/include/x86_64-linux-gnu --enable-gpl --disable-stripping --enable-avresample --enable-avisynth --enable-gnutls --enable-ladspa --enable-libass --enable-libbluray --enable-libbs2b --enable-libcaca --enable-libcdio --enable-libflite --enable-libfontconfig --enable-libfreetype --enable-libfribidi --enable-libgme --enable-libgsm --enable-libmp3lame --enable-libmysofa --enable-libopenjpeg --enable-libopenmpt --enable-libopus --enable-libpulse --enable-librubberband --enable-librsvg --enable-libshine --enable-libsnappy --enable-libsoxr --enable-libspeex --enable-libssh --enable-libtheora --enable-libtwolame --enable-libvorbis --enable-libvpx --enable-libwavpack --enable-libwebp --enable-libx265 --enable-libxml2 --enable-libxvid --enable-libzmq --enable-libzvbi --enable-omx --enable-openal --enable-opengl --enable-sdl2 --enable-libdc1394 --enable-libdrm --enable-libiec61883 --enable-chromaprint --enable-frei0r --enable-libopencv --enable-libx264 --enable-shared
  libavutil      55. 78.100 / 55. 78.100
  libavcodec     57.107.100 / 57.107.100
  libavformat    57. 83.100 / 57. 83.100
  libavdevice    57. 10.100 / 57. 10.100
  libavfilter     6.107.100 /  6.107.100
  libavresample   3.  7.  0 /  3.  7.  0
  libswscale      4.  8.100 /  4.  8.100
  libswresample   2.  9.100 /  2.  9.100
  libpostproc    54.  7.100 / 54.  7.100
[rawvideo @ 0x55fba79eca20] Estimating duration from bitrate, this may be inaccurate
Input #0, rawvideo, from '../../SVC-Encoder-20220109T061506Z-001/SVC-Encoder/Dataset/RollerCoaster/ERP_8x8/tile_yuv/Tile_36_480x240.yuv':
  Duration: 00:00:10.00, start: 0.000000, bitrate: 41472 kb/s
    Stream #0:0: Video: rawvideo (I420 / 0x30323449), yuv420p, 480x240, 41472 kb/s, 30 tbr, 30 tbn, 30 tbc
Stream mapping:
  Stream #0:0 -> #0:0 (rawvideo (native) -> h264 (libx264))
Press [q] to stop, [?] for help
[libx264 @ 0x55fba79f9c60] using cpu capabilities: MMX2 SSE2Fast LZCNT SSSE3 SSE4.2 AVX
[libx264 @ 0x55fba79f9c60] profile High, level 2.1
Output #0, rawvideo, to 'RollerCoaster_Tile_36_480x240_x264_QP_40.h264':
  Metadata:
    encoder         : Lavf57.83.100
    Stream #0:0: Video: h264 (libx264), yuv420p, 480x240, q=-1--1, 30 fps, 30 tbn, 30 tbc
    Metadata:
      encoder         : Lavc57.107.100 libx264
    Side data:
      cpb: bitrate max/min/avg: 0/0/0 buffer size: 0 vbv_delay: -1
frame=  191 fps=0.0 q=46.0 PSNR=Y:nan U:nan V:nan *:nan size=      41kB time=00:00:04.93 bitrate=  67.4kbits/s speed=9.86x    frame=  300 fps=0.0 q=46.0 LPSNR=Y:inf U:inf V:inf *:inf size=      79kB time=00:00:09.93 bitrate=  65.4kbits/s speed=  12x    
video:79kB audio:0kB subtitle:0kB other streams:0kB global headers:0kB muxing overhead: 0.000000%
[libx264 @ 0x55fba79f9c60] frame I:2     Avg QP:38.31  size:  3276  PSNR Mean Y:32.36 U:39.38 V:42.18 Avg:33.80 Global:33.79
[libx264 @ 0x55fba79f9c60] frame P:76    Avg QP:39.86  size:   584  PSNR Mean Y:31.26 U:39.49 V:41.69 Avg:32.76 Global:32.74
[libx264 @ 0x55fba79f9c60] frame B:222   Avg QP:45.48  size:   136  PSNR Mean Y:30.88 U:39.47 V:41.70 Avg:32.40 Global:32.39
[libx264 @ 0x55fba79f9c60] consecutive B-frames:  1.0%  0.7%  1.0% 97.3%
[libx264 @ 0x55fba79f9c60] mb I  I16..4: 23.8% 57.9% 18.3%
[libx264 @ 0x55fba79f9c60] mb P  I16..4:  0.9%  2.4%  0.1%  P16..4: 35.8%  6.8%  1.0%  0.0%  0.0%    skip:53.0%
[libx264 @ 0x55fba79f9c60] mb B  I16..4:  0.0%  0.0%  0.0%  B16..8: 19.6%  0.6%  0.0%  direct: 0.0%  skip:79.8%  L0:34.0% L1:65.4% BI: 0.6%
[libx264 @ 0x55fba79f9c60] 8x8 transform intra:65.3% inter:87.3%
[libx264 @ 0x55fba79f9c60] coded y,uvDC,uvAC intra: 19.4% 32.3% 6.8% inter: 1.5% 2.2% 0.0%
[libx264 @ 0x55fba79f9c60] i16 v,h,dc,p: 31% 28% 32%  9%
[libx264 @ 0x55fba79f9c60] i8 v,h,dc,ddl,ddr,vr,hd,vl,hu: 15%  7% 62%  1%  3%  5%  6%  1%  2%
[libx264 @ 0x55fba79f9c60] i4 v,h,dc,ddl,ddr,vr,hd,vl,hu: 24% 14% 16%  1% 17% 14% 10%  1%  3%
[libx264 @ 0x55fba79f9c60] i8c dc,h,v,p: 78%  9% 11%  2%
[libx264 @ 0x55fba79f9c60] Weighted P-Frames: Y:0.0% UV:0.0%
[libx264 @ 0x55fba79f9c60] ref P L0: 68.4% 14.2% 12.9%  4.5%
[libx264 @ 0x55fba79f9c60] ref B L0: 90.0%  8.6%  1.4%
[libx264 @ 0x55fba79f9c60] ref B L1: 93.6%  6.4%
[libx264 @ 0x55fba79f9c60] PSNR Mean Y:30.982 U:39.474 V:41.701 Avg:32.503 Global:32.485 kb/s:64.92
